<svg width="635" height="357" viewBox="0 0 635 357" fill="none" xmlns="http://www.w3.org/2000/svg">
<path d="M429.646 354.997V292.395H440.778L472.838 338.013V292.395H482.991V354.997H472.393L439.887 308.846V354.997H429.646Z" fill="#262626"/>
<path d="M509.896 356.42C505.324 356.42 501.317 355.412 497.873 353.397C494.43 351.322 491.758 348.476 489.858 344.86C488.018 341.185 487.097 337.035 487.097 332.411C487.097 327.846 487.988 323.755 489.769 320.139C491.61 316.523 494.222 313.677 497.606 311.602C501.05 309.468 505.087 308.401 509.718 308.401C514.171 308.401 517.941 309.409 521.028 311.424C524.175 313.381 526.55 316.167 528.153 319.783C529.815 323.34 530.646 327.52 530.646 332.322C530.646 333.211 530.617 334.011 530.557 334.723H496.805C497.101 339.228 498.408 342.637 500.723 344.949C503.039 347.202 506.156 348.328 510.074 348.328C512.865 348.328 515.15 347.706 516.931 346.461C518.713 345.216 519.989 343.437 520.761 341.125H530.201C529.132 346.105 526.757 349.899 523.076 352.508C519.455 355.116 515.061 356.42 509.896 356.42ZM520.939 327.875C520.702 324.259 519.574 321.503 517.555 319.605C515.596 317.649 512.983 316.671 509.718 316.671C506.274 316.671 503.454 317.649 501.257 319.605C499.061 321.503 497.665 324.259 497.072 327.875H520.939Z" fill="#262626"/>
<path d="M543.695 354.997L529.802 309.824H539.599L548.95 341.926L558.568 309.824H567.028L576.647 342.014L585.998 309.824H595.705L581.723 354.997H572.105L562.754 324.052L553.492 354.997H543.695Z" fill="#262626"/>
<path d="M614.978 356.42C609.041 356.42 604.321 355.027 600.818 352.241C597.315 349.454 595.356 345.749 594.94 341.125H604.915C605.271 343.437 606.31 345.275 608.032 346.639C609.813 348.002 612.128 348.684 614.978 348.684C617.769 348.684 619.965 348.091 621.568 346.905C623.231 345.72 624.062 344.208 624.062 342.37C624.062 340.888 623.468 339.791 622.281 339.08C621.153 338.369 619.075 337.628 616.047 336.857C615.512 336.798 614.948 336.709 614.355 336.59C613.82 336.412 613.256 336.264 612.663 336.145C608.982 335.315 605.983 334.397 603.668 333.389C601.412 332.322 599.66 330.929 598.413 329.209C597.167 327.49 596.543 325.267 596.543 322.54C596.543 319.694 597.285 317.205 598.77 315.07C600.254 312.936 602.362 311.306 605.093 310.179C607.824 308.994 611 308.401 614.622 308.401C619.906 308.401 624.092 309.646 627.179 312.136C630.326 314.626 632.255 318.153 632.968 322.718H623.171C622.815 320.643 621.925 319.042 620.5 317.916C619.075 316.73 617.115 316.137 614.622 316.137C612.247 316.137 610.288 316.671 608.744 317.738C607.26 318.746 606.518 320.08 606.518 321.74C606.518 323.281 607.171 324.407 608.477 325.119C609.842 325.771 612.247 326.482 615.691 327.253C615.928 327.312 616.166 327.372 616.403 327.431C616.641 327.49 616.878 327.549 617.115 327.609C621.093 328.439 624.27 329.358 626.645 330.365C629.079 331.373 630.919 332.766 632.166 334.545C633.472 336.323 634.125 338.665 634.125 341.57C634.125 344.534 633.354 347.142 631.81 349.395C630.266 351.589 628.04 353.308 625.131 354.553C622.281 355.798 618.897 356.42 614.978 356.42Z" fill="#262626"/>
<path fill-rule="evenodd" clip-rule="evenodd" d="M632.936 272C632.936 270.583 633 46.5483 633 46.5483C633 17.1663 615.25 4.19727 590.549 4.19727H545.337V272H578.854V35.341H587.241C595.241 35.341 599.684 39.7826 599.684 47.7954C599.684 47.7954 599.684 269.426 599.684 272H632.936Z" fill="#262626"/>
<path fill-rule="evenodd" clip-rule="evenodd" d="M461.8 272H429.646V4.19727H461.037C461.037 4.19727 492.274 142.824 492.714 145.207C492.655 143.875 492.788 4.19727 492.788 4.19727H524.943V272H487.301C487.301 272 462.256 155.427 461.773 152.943C461.848 154.244 461.8 272 461.8 272Z" fill="#262626"/>
<path fill-rule="evenodd" clip-rule="evenodd" d="M376.947 4.19727H409.26V268.551C409.26 268.858 409.26 271.708 409.26 272H376.947C376.947 271.968 376.947 271.793 376.947 271.761V4.19727ZM322.774 4.19727H355.645V272H322.774C322.774 271.708 322.774 268.858 322.774 268.551V4.19727Z" fill="#262626"/>
<path fill-rule="evenodd" clip-rule="evenodd" d="M302.332 272C302.332 271.469 302.374 42.1919 302.374 42.1919C302.374 16.1954 287.349 0 258.789 0C229.307 0 215.21 15.877 215.21 42.1919C215.21 42.1919 215.21 271.491 215.247 272H248.207C248.207 271.894 248.207 43.1683 248.207 43.1683C248.207 35.2935 251.919 31.1438 258.811 31.1438C266.339 31.1438 269.414 35.9196 269.414 43.1683C269.414 43.1683 269.414 271.878 269.414 272H302.332Z" fill="#262626"/>
<path fill-rule="evenodd" clip-rule="evenodd" d="M149.124 139.948H140.302V36.2909H150.709C157.872 36.2909 161.249 40.5361 161.249 48.3154V127.722C161.249 136.796 155.65 139.948 149.124 139.948ZM177.223 156.212C186.988 152.625 194.469 144.798 194.469 124.633V45.7524C194.469 19.0289 178.877 4.19727 149.935 4.19727H107.093V272H140.292V171.399H149.029C158.28 172.349 161.567 176.069 161.567 188.799V272H194.814C194.782 270.811 194.766 185.907 194.766 185.907C194.766 166.263 186.13 159.911 177.202 156.212H177.223Z" fill="#262626"/>
<path d="M43.8976 140.128H86.7083V271.999H54.7978C54.7978 271.893 54.7978 168.162 54.7978 168.162H43.8976V140.128ZM43.8976 0.949219C72.3144 0.949219 86.5069 17.1499 86.5069 43.1464V109.218H54.8031V43.8044C54.8031 36.5664 51.744 32.093 44.1998 32.093C37.1963 32.093 33.5965 36.248 33.5965 43.8044C33.5965 43.8044 33.5965 271.893 33.5965 271.983H0.0371115C0 271.49 0 43.1464 0 43.1464C0 16.8315 14.6166 0.949219 43.8764 0.949219H43.8976Z" fill="#262626"/>
</svg>
